Coordinates
version=1
nRows=27
nColumns=38
inDegrees=no

Units are S.I. units (second, meters, Newtons, ...)
If the header above contains a line with 'inDegrees', this indicates whether rotational values are in degrees (yes) or radians (no).

endheader
time	pelvis_tilt	pelvis_list	pelvis_rotation	pelvis_tx	pelvis_ty	pelvis_tz	hip_flexion_r	hip_adduction_r	hip_rotation_r	knee_angle_r	ankle_angle_r	subtalar_angle_r	mtp_angle_r	hip_flexion_l	hip_adduction_l	hip_rotation_l	knee_angle_l	ankle_angle_l	subtalar_angle_l	mtp_angle_l	lumbar_extension	lumbar_bending	lumbar_rotation	arm_flex_r	arm_add_r	arm_rot_r	elbow_flex_r	pro_sup_r	wrist_flex_r	wrist_dev_r	arm_flex_l	arm_add_l	arm_rot_l	elbow_flex_l	pro_sup_l	wrist_flex_l	wrist_dev_l
130	-3.02981	1.4638	-1.52352	0.790296	0.0906881	1.08109	0.0182196	0.0124859	-0.154132	0.274851	-0.366485	0	0	0.177966	-0.100906	-0.0480288	0.951033	-0.227664	0	0	-0.276802	-0.0242602	0.145717	0.659746	-0.325593	0.417093	1.09595	1.5708	0	0	0.797444	0.0924716	0.141179	0.654307	1.5708	0	0
130.01	-3.0482	1.46303	-1.50519	0.790503	0.0858887	1.08084	0.019379	0.0149164	-0.152166	0.268198	-0.371496	0	0	0.163983	-0.104626	-0.0468639	0.966271	-0.226278	0	0	-0.274469	-0.0213893	0.144902	0.657688	-0.324462	0.417383	1.09497	1.5708	0	0	0.794431	0.0923094	0.139497	0.654518	1.5708	0	0
130.02	-3.06448	1.46263	-1.48865	0.790594	0.0810365	1.08057	0.0210481	0.016725	-0.150161	0.261142	-0.37689	0	0	0.149695	-0.107623	-0.0449149	0.978331	-0.226488	0	0	-0.271889	-0.0187439	0.143815	0.655364	-0.323529	0.417089	1.09442	1.5708	0	0	0.791665	0.0921199	0.138238	0.654613	1.5708	0	0
130.03	-3.08035	1.46234	-1.47212	0.79057	0.076131	1.08027	0.0227828	0.0184839	-0.148614	0.253941	-0.382361	0	0	0.135	-0.110492	-0.0430431	0.987627	-0.228093	0	0	-0.269349	-0.0161355	0.142538	0.652836	-0.322875	0.416178	1.09435	1.5708	0	0	0.789155	0.0920379	0.137358	0.654661	1.5708	0	0
130.04	-3.09583	1.462	-1.45557	0.790427	0.0711464	1.07994	0.0244205	0.0202069	-0.147379	0.246642	-0.387977	0	0	0.119943	-0.113313	-0.0415781	0.994259	-0.231099	0	0	-0.267103	-0.0137099	0.141016	0.650221	-0.322385	0.414985	1.09473	1.5708	0	0	0.786857	0.0923466	0.136039	0.654795	1.5708	0	0
130.05	-3.11093	1.46171	-1.43908	0.790169	0.0660792	1.07956	0.026126	0.0217949	-0.14614	0.239111	-0.393885	0	0	0.104575	-0.116136	-0.0405713	0.997848	-0.234841	0	0	-0.264969	-0.0113462	0.139302	0.647441	-0.322031	0.413297	1.09541	1.5708	0	0	0.784892	0.0927486	0.135198	0.654874	1.5708	0	0
130.06	-3.1273	1.46168	-1.42112	0.789808	0.0609597	1.07911	0.0282107	0.0233639	-0.144818	0.231438	-0.399825	0	0	0.0890111	-0.119229	-0.0402315	0.998091	-0.238535	0	0	-0.262674	-0.00882812	0.137669	0.644325	-0.321963	0.410787	1.09656	1.5708	0	0	0.783139	0.0933298	0.135216	0.654871	1.5708	0	0
130.07	3.13758	1.46173	-1.40103	0.789349	0.0557794	1.07861	0.0311156	0.0248327	-0.144283	0.225389	-0.405561	0	0	0.0732212	-0.122389	-0.039916	0.995169	-0.242547	0	0	-0.260239	-0.00627315	0.136138	0.641092	-0.322301	0.407799	1.0979	1.5708	0	0	0.781943	0.094129	0.136207	0.654284	1.5708	0	0
130.08	3.11788	1.46178	-1.3794	0.788796	0.0505308	1.07805	0.0344829	0.0262765	-0.144245	0.220709	-0.409647	0	0	0.0573005	-0.125654	-0.0401713	0.98932	-0.246278	0	0	-0.257708	-0.00377293	0.134484	0.63818	-0.323054	0.405244	1.09906	1.5708	0	0	0.781014	0.0953203	0.137007	0.653372	1.5708	0	0
130.09	3.0984	1.46204	-1.35796	0.788151	0.0452058	1.07743	0.0377604	0.0276526	-0.143656	0.215477	-0.413253	0	0	0.0412215	-0.12834	-0.0404455	0.979974	-0.250166	0	0	-0.255033	-0.0012775	0.132916	0.635435	-0.324246	0.402893	1.10026	1.5708	0	0	0.780363	0.0970319	0.137507	0.651938	1.5708	0	0
130.1	3.08125	1.46258	-1.33895	0.78738	0.0397747	1.07675	0.0397772	0.0288291	-0.140494	0.205929	-0.418716	0	0	0.0251592	-0.129916	-0.0406999	0.967223	-0.255603	0	0	-0.252255	0.00096961	0.13157	0.632707	-0.32591	0.400408	1.10177	1.5708	0	0	0.780119	0.0989917	0.138378	0.650148	1.5708	0	0
130.11	3.06722	1.46145	-1.32327	0.786465	0.0341875	1.07617	0.0361769	0.0307729	-0.132909	0.18544	-0.437497	0	0	0.0069187	-0.13109	-0.0417431	0.95074	-0.26677	0	0	-0.250996	0.0055791	0.12764	0.635014	-0.326422	0.404684	1.09931	1.5708	0	0	0.778727	0.0985824	0.137624	0.649971	1.5708	0	0
130.12	3.05035	1.46219	-1.30516	0.785491	0.0286237	1.07532	0.036959	0.0317849	-0.127054	0.171755	-0.444115	0	0	-0.00916446	-0.132022	-0.0441182	0.932464	-0.274351	0	0	-0.247555	0.00964613	0.124455	0.635909	-0.327268	0.407309	1.09776	1.5708	0	0	0.77708	0.0985557	0.137574	0.649685	1.5708	0	0
130.13	3.03226	1.4633	-1.28582	0.784403	0.0229824	1.07439	0.0392459	0.0322188	-0.122719	0.160871	-0.448231	0	0	-0.0248017	-0.132737	-0.0473728	0.911823	-0.27864	0	0	-0.243765	0.0137175	0.121268	0.636874	-0.328476	0.409757	1.09651	1.5708	0	0	0.775517	0.0988137	0.13752	0.649494	1.5708	0	0
130.14	3.01229	1.466	-1.26475	0.783267	0.0172846	1.07327	0.044123	0.0319376	-0.118171	0.152276	-0.446145	0	0	-0.0386559	-0.132787	-0.0516535	0.888458	-0.279828	0	0	-0.239115	0.0158194	0.120945	0.63303	-0.331199	0.404405	1.10024	1.5708	0	0	0.775903	0.101538	0.139957	0.647427	1.5708	0	0
130.15	2.99164	1.46681	-1.24287	0.782023	0.011383	1.07229	0.0467533	0.0321702	-0.113991	0.142202	-0.450699	0	0	-0.0545134	-0.133262	-0.0575383	0.861606	-0.28068	0	0	-0.236216	0.0202718	0.117571	0.635178	-0.332869	0.407292	1.09913	1.5708	0	0	0.774721	0.102549	0.138113	0.64786	1.5708	0	0
130.16	2.96898	1.46756	-1.219	0.780686	0.00536538	1.07126	0.0492437	0.0324487	-0.109061	0.131295	-0.455708	0	0	-0.0704005	-0.133392	-0.0643675	0.830643	-0.277415	0	0	-0.233358	0.025213	0.113956	0.638238	-0.334745	0.411289	1.09751	1.5708	0	0	0.773624	0.103729	0.135473	0.648231	1.5708	0	0
130.17	2.95035	1.4661	-1.19905	0.779165	-0.000883501	1.0704	0.0478687	0.0329585	-0.102846	0.115186	-0.470923	0	0	-0.088662	-0.133282	-0.0717279	0.794923	-0.26395	0	0	-0.231971	0.0340574	0.104054	0.652088	-0.333533	0.43101	1.08596	1.5708	0	0	0.768238	0.101012	0.124562	0.654101	1.5708	0	0
130.18	2.92591	1.46722	-1.1735	0.777617	-0.00718401	1.06927	0.0515265	0.0323946	-0.097476	0.104353	-0.476577	0	0	-0.103108	-0.132428	-0.0799523	0.75705	-0.24984	0	0	-0.22886	0.0393298	0.0998794	0.656717	-0.335451	0.436675	1.08313	1.5708	0	0	0.76735	0.102123	0.121964	0.654313	1.5708	0	0
130.19	2.89941	1.46918	-1.14594	0.776001	-0.0136264	1.06801	0.0566797	0.0313627	-0.0927418	0.0951793	-0.479248	0	0	-0.115714	-0.13064	-0.0877407	0.718397	-0.236515	0	0	-0.225094	0.0440466	0.0963305	0.660524	-0.337951	0.440839	1.08138	1.5708	0	0	0.767184	0.103829	0.120362	0.65381	1.5708	0	0
130.2	2.87072	1.47273	-1.11638	0.774399	-0.0201717	1.0666	0.0644107	0.0295788	-0.0891676	0.0890912	-0.475268	0	0	-0.125013	-0.12818	-0.096428	0.682385	-0.229665	0	0	-0.22088	0.0453501	0.0974589	0.656955	-0.342926	0.432984	1.08681	1.5708	0	0	0.770909	0.108836	0.124476	0.649135	1.5708	0	0
130.21	2.8508	1.47433	-1.0958	0.772754	-0.0269042	1.06545	0.0685538	0.0279083	-0.0852765	0.0790724	-0.477296	0	0	-0.134866	-0.125616	-0.106662	0.650221	-0.216387	0	0	-0.218396	0.0493082	0.093948	0.662121	-0.345421	0.437903	1.08437	1.5708	0	0	0.771658	0.110763	0.121909	0.648505	1.5708	0	0
130.22	2.84037	1.47569	-1.08481	0.771152	-0.0338176	1.06447	0.0725311	0.0257701	-0.0824575	0.070325	-0.477889	0	0	-0.141962	-0.122581	-0.119192	0.623889	-0.204485	0	0	-0.217512	0.0517355	0.0905789	0.667803	-0.347876	0.442098	1.08198	1.5708	0	0	0.773028	0.112915	0.118846	0.648615	1.5708	0	0
130.23	2.83446	1.47753	-1.07841	0.769584	-0.0409537	1.06358	0.0763322	0.0227608	-0.0786339	0.0597836	-0.478826	0	0	-0.145856	-0.11888	-0.132109	0.601822	-0.194239	0	0	-0.217321	0.0530163	0.0874405	0.673635	-0.35027	0.445266	1.07977	1.5708	0	0	0.775262	0.115056	0.116392	0.648709	1.5708	0	0
130.24	2.83291	1.47956	-1.0763	0.768056	-0.0482569	1.06282	0.0800707	0.0188065	-0.0746773	0.0484407	-0.480551	0	0	-0.14815	-0.114667	-0.144865	0.582136	-0.185253	0	0	-0.217889	0.0533474	0.0844631	0.67932	-0.352438	0.44699	1.0777	1.5708	0	0	0.778329	0.117164	0.115042	0.648537	1.5708	0	0
130.25	2.83885	1.48156	-1.08137	0.766529	-0.0557397	1.06223	0.0830643	0.0141418	-0.0706139	0.0358219	-0.482973	0	0	-0.149803	-0.109564	-0.156746	0.563989	-0.176589	0	0	-0.219572	0.0526337	0.0815959	0.684599	-0.354465	0.446803	1.07614	1.5708	0	0	0.782348	0.119414	0.11486	0.648069	1.5708	0	0
130.26	2.85578	1.48315	-1.09714	0.76502	-0.0633698	1.06187	0.0852513	0.00876505	-0.0676437	0.0232926	-0.485448	0	0	-0.151474	-0.103608	-0.166829	0.547357	-0.169077	0	0	-0.222894	0.0506414	0.0789511	0.689598	-0.356523	0.444984	1.07506	1.5708	0	0	0.787601	0.121996	0.115581	0.647005	1.5708	0	0
